<?xml version="1.0" encoding="utf-8"?>
<!-- Generator: Adobe Illustrator 16.0.0, SVG Export Plug-In . SVG Version: 6.00 Build 0)  -->
<!DOCTYPE svg PUBLIC "-//W3C//DTD SVG 1.1//EN" "http://www.w3.org/Graphics/SVG/1.1/DTD/svg11.dtd">
<svg version="1.1" id="Layer_1" xmlns="http://www.w3.org/2000/svg" xmlns:xlink="http://www.w3.org/1999/xlink" x="0px" y="0px"
	 width="625px" height="225px" viewBox="0 0 625 225" enable-background="new 0 0 625 225" xml:space="preserve">
<path fill="#EE3677" d="M586.287,58.632c-1.44-2.946-3.137-5.716-5.203-8.48c-4.86-5.989-10.34-9.881-16.773-11.913
	c-3.221-1.003-6.514-1.511-9.793-1.511c-3.289,0-6.523,0.506-9.602,1.501c-2.898,0.93-5.61,2.227-8.103,3.877
	c-1.359-0.508-2.688-0.922-4.005-1.253l-1.623-0.408l-1.678-0.187c-1.19-0.133-2.3-0.188-3.355-0.188
	c-0.269,0-0.537,0.003-0.801,0.01c-0.147-0.041-0.295-0.079-0.442-0.119c-3.074-0.816-6.326-1.227-9.678-1.227
	c-1.888,0-3.839,0.128-5.789,0.388c-4.707,0.622-9.44,2.036-14.496,4.331c-0.371,0.17-0.742,0.345-1.113,0.526
	c-1.399-0.64-2.886-1.205-4.47-1.704c-2.166-0.678-3.794-1.135-4.926-1.421l-1.643-0.414l-1.664-0.183
	c-1.186-0.133-2.304-0.188-3.359-0.188c-0.269,0-0.537,0.003-0.801,0.01c-0.148-0.041-0.296-0.079-0.443-0.119
	c-3.073-0.816-6.326-1.227-9.678-1.227c-1.888,0-3.838,0.128-5.789,0.388c-0.259,0.034-0.519,0.072-0.773,0.11v-0.372
	c0-5.281-1.539-10.39-4.483-14.817l-1.355-2.011l-1.691-1.691c-2.129-2.139-4.612-3.938-7.417-5.362l-1.615-0.812l-1.696-0.564
	c-3.767-1.257-7.824-1.957-12.075-2.085c-0.827-0.023-1.61-0.032-2.371-0.032c-1.735,0-3.333,0.052-5.838,0.253
	c-5.423,0.607-10.054,2.101-14.134,4.55l-1.468,0.88l-1.293,1.04c-1.243,0.997-2.366,2.004-3.847,3.508l-0.792,0.874
	c-2.488,2.897-5.418,6.899-8.948,12.229c-0.891,1.345-1.794,2.744-2.702,4.182l-23.452,4.608c-3.024-1.77-6.22-3.02-9.543-3.729
	c-1.392-0.293-2.372-0.47-2.537-0.483c-0.859-0.151-1.731-0.274-2.617-0.365c-1.097-1.823-2.438-3.544-4.031-5.17
	c-2.595-2.539-5.673-4.523-8.836-5.733c-0.645-1.472-1.432-2.891-2.354-4.25l-1.315-1.927l-1.638-1.631
	c-2.129-2.129-4.576-3.905-7.247-5.267l-1.7-0.872l-1.768-0.582c-3.763-1.255-7.815-1.955-12.075-2.083
	c-0.818-0.023-1.606-0.032-2.362-0.032c-1.74,0-3.337,0.052-5.852,0.255c-5.426,0.61-10.071,2.113-14.187,4.591l-1.378,0.825
	l-1.275,1.018c-1.248,1-2.367,2-3.646,3.273l-1.267,1.407c-1.333,1.597-2.903,3.646-4.674,6.14
	c-1.548,2.179-3.245,4.709-5.092,7.588c-0.483,0.761-0.98,1.537-1.476,2.329c-0.631,0.056-1.262,0.127-1.892,0.21
	c-4.703,0.622-9.602,2.101-14.577,4.403c-0.828,0.384-1.655,0.798-2.478,1.242c-3.57-2.392-7.396-4.032-11.423-4.893
	c-1.274-0.264-2.286-0.436-2.93-0.528c-2.085-0.354-4.268-0.532-6.492-0.532c-4.151,0-8.415,0.604-13.028,1.849
	c-3.337,0.903-6.576,2.211-9.798,3.96c-3.512-2.315-7.261-3.908-11.202-4.749c-1.276-0.264-2.287-0.436-2.931-0.528
	c-2.081-0.354-4.268-0.532-6.492-0.532c-4.156,0-8.42,0.606-13.028,1.852c-3.065,0.83-6.031,1.988-8.97,3.514
	c-0.56-0.29-1.127-0.568-1.705-0.832c-2.456-1.112-4.747-1.926-7.002-2.494l-1.642-0.414l-1.664-0.183
	c-1.185-0.133-2.304-0.188-3.36-0.188c-0.268,0-0.537,0.003-0.8,0.01c-0.148-0.041-0.296-0.079-0.443-0.119
	c-3.074-0.816-6.326-1.227-9.677-1.227c-1.889,0-3.839,0.128-5.79,0.388c-4.707,0.622-9.444,2.038-14.491,4.331
	c-5.158,2.349-10.089,5.694-14.536,9.834c-4.774,4.277-9.037,9.576-12.675,15.766c-3.507,5.979-6.075,12.142-7.646,18.328
	c-1.27,5.026-1.785,9.938-1.548,14.681c-0.957,0.223-1.892,0.429-2.8,0.622c-5.499,1.163-10.29,1.845-14.25,2.031
	c-0.716,0.033-1.409,0.052-2.089,0.052c-2.604,0-4.241-0.258-5.159-0.473c-1.7-0.397-2.738-0.908-3.297-1.259
	c-4.792-3.013-9.879-4.541-15.113-4.541c-10.106,0-16.321,5.271-18.388,7.403c-3.861,3.796-6.469,8.697-7.561,14.242
	c-0.622,3.293-0.881,6.934-0.801,11.143c0.144,6.693,1.987,13.118,5.494,19.115c3.606,6.133,9.002,11.229,16.048,15.148
	c6.814,3.777,14.939,5.693,24.687,5.853c0.869,0.031,1.741,0.042,2.604,0.042c7.745,0,15.583-1.154,23.301-3.432
	c6.827-2.016,13.632-4.397,20.226-7.077c5.906-2.403,11.664-4.754,17.265-7.056c3.974-1.633,7.57-2.762,10.693-3.348l1.508-0.291
	l0.546-0.129c0.219-0.025,0.438-0.042,0.644-0.056c3.123,1.513,6.545,2.506,10.008,2.896c1.182,0.139,2.349,0.206,3.486,0.206
	c6.688,0,13.014-2.223,18.338-6.466l1.016-0.824l0.966-0.957c2.631-2.63,4.703-5.599,6.116-8.746
	c0.215-0.466,0.416-0.92,0.635-1.437c0.994-0.006,1.956-0.038,2.81-0.095c3.248-0.198,6.541-0.734,9.051-1.453
	c1.454-0.371,3.199-0.901,5.194-1.629c1.239-0.449,2.47-0.971,3.673-1.555c4.55,2.225,9.593,3.621,16.169,4.422l0.573,0.045
	c1.99,0.185,3.861,0.265,5.615,0.265c1.127,0,2.214-0.031,3.176-0.095c3.248-0.198,6.541-0.734,9.051-1.453
	c1.338-0.342,2.926-0.818,4.72-1.456c1.96,0.938,4.049,1.714,6.263,2.315c3.401,0.883,6.855,1.328,10.268,1.328
	c2.362,0,4.761-0.219,7.177-0.66c3.355-0.631,6.572-1.604,9.708-2.953c0.296,0.088,2.447,0.684,2.447,0.684l1.647,0.227
	c1.695,0.231,3.405,0.346,5.078,0.346c4.246,0,8.442-0.715,12.518-2.125c3.704,1.427,7.713,2.146,11.923,2.146l1.028,0.014
	c4.461,0,8.77-0.763,12.864-2.274c3.771,1.469,7.879,2.476,12.271,3.028c1.303,0.234,2.649,0.371,3.258,0.386
	c1.798,0.13,3.727,0.198,5.78,0.198c2.255,0,4.671-0.151,7.405-0.469c2.764-0.332,5.672-0.884,9.197-1.776l1.181-0.353
	c1.199-0.4,2.438-0.832,3.419-1.201c1.888-0.684,3.722-1.482,5.869-2.562c2.252-1.168,4.367-2.439,6.331-3.801
	c1.66,2.043,3.584,3.859,5.758,5.436c2.438,1.751,4.943,3.161,6.867,3.913c2.286,1.042,4.604,1.751,7.007,2.14
	c0.697,5.105,2.42,10.027,5.145,14.691c3.606,6.133,9.002,11.229,16.044,15.146c6.81,3.779,14.934,5.695,24.691,5.854
	c0.868,0.031,1.741,0.042,2.604,0.042c7.744,0,15.582-1.154,23.3-3.432c6.827-2.016,13.633-4.396,20.227-7.077
	c5.906-2.403,11.664-4.754,17.266-7.056c3.973-1.633,7.569-2.762,10.692-3.348l1.508-0.291l0.546-0.129
	c0.22-0.025,0.443-0.042,0.645-0.056c3.118,1.513,6.545,2.506,10.008,2.896c1.182,0.139,2.349,0.206,3.485,0.206
	c6.688,0,13.015-2.223,18.339-6.466l1.016-0.824l0.966-0.957c2.622-2.619,4.698-5.601,6.166-8.849
	c0.397-0.877,0.747-1.7,1.288-3.063l0.161-0.453c1.359-0.074,2.693-0.237,3.839-0.471c7.238-1.179,13.609-4.125,18.951-8.766
	c3.284-2.857,6.085-6.21,8.354-9.995c0.281-0.198,0.563-0.399,0.841-0.6l15.283-0.27v-17.29c1.664-3.756,2.536-7.843,2.536-11.939
	C603.337,72.164,596.515,62.587,586.287,58.632"/>
</svg>
